<?xml version="1.0" encoding="UTF-8"?>
<svg id="Camada_1" xmlns="http://www.w3.org/2000/svg" baseProfile="tiny" version="1.2" viewBox="0 0 32 32">
  <title>Makewell Comunicação</title>
  <rect x=".08" y=".08" width="31.92" height="31.92" fill="#fff"/>
  <path d="M23.4,14.7v6.69c0,.26-.25.43-.48.3l-6.83-3.87v4.6l8.36,4.74c1.34.75,2.96-.21,2.96-1.74v-12.98l-4.01,2.26h0Z" fill="#f1ca29"/>
  <path d="M7.68,4.93c-1.34-.75-3.01.21-3.01,1.74v12.97l4.01-2.26v-6.69c0-.26.3-.43.53-.3l6.88,3.87v-4.6L7.68,4.93Z" fill="#f0c950"/>
  <path d="M9.22,21.69s-.03,0-.04.01l-4.5,2.54v1.17c0,1.53,1.67,2.5,3.01,1.74l8.41-4.74v-4.6l-6.87,3.87h0Z" fill="#d88d1b"/>
  <path d="M27.41,7.84v-1.17c0-1.53-1.62-2.5-2.96-1.74l-8.36,4.74v4.6s11.32-6.43,11.32-6.43Z" fill="#d88d1b"/>
</svg>
